%FSLAX34Y34*%
%MOMM*%
%LNSOLDERMASK_BOTTOM*%
G71*
G01*
%ADD10C, 2.40*%
%ADD11C, 2.40*%
%ADD12C, 2.51*%
%ADD13C, 2.64*%
%ADD14C, 2.60*%
%ADD15C, 2.24*%
%ADD16R, 2.20X1.80*%
%LPD*%
G36*
X41975Y-121350D02*
X65975Y-121350D01*
X65975Y-145350D01*
X41975Y-145350D01*
X41975Y-121350D01*
G37*
X79375Y-133350D02*
G54D10*
D03*
X104775Y-133350D02*
G54D10*
D03*
X130175Y-133350D02*
G54D10*
D03*
X155575Y-133350D02*
G54D10*
D03*
X180975Y-133350D02*
G54D10*
D03*
X206375Y-133350D02*
G54D10*
D03*
X231775Y-133350D02*
G54D10*
D03*
X257175Y-133350D02*
G54D10*
D03*
X282575Y-133350D02*
G54D10*
D03*
X307975Y-133350D02*
G54D10*
D03*
X333375Y-133350D02*
G54D10*
D03*
X358775Y-133350D02*
G54D10*
D03*
X384175Y-133350D02*
G54D10*
D03*
X384175Y-57150D02*
G54D10*
D03*
X358775Y-57150D02*
G54D10*
D03*
X333375Y-57150D02*
G54D10*
D03*
X307975Y-57150D02*
G54D10*
D03*
X282575Y-57150D02*
G54D10*
D03*
X257175Y-57150D02*
G54D10*
D03*
X231775Y-57150D02*
G54D10*
D03*
X206375Y-57150D02*
G54D10*
D03*
X180975Y-57150D02*
G54D10*
D03*
X155575Y-57150D02*
G54D10*
D03*
X130175Y-57150D02*
G54D10*
D03*
X104775Y-57150D02*
G54D10*
D03*
X79375Y-57150D02*
G54D10*
D03*
X53975Y-57150D02*
G54D10*
D03*
X434975Y-120650D02*
G54D11*
D03*
X434975Y-95250D02*
G54D11*
D03*
X434975Y-69850D02*
G54D11*
D03*
X434975Y-44450D02*
G54D11*
D03*
X460375Y-120650D02*
G54D11*
D03*
X460375Y-95250D02*
G54D11*
D03*
X460375Y-69850D02*
G54D11*
D03*
X460375Y-44450D02*
G54D11*
D03*
X333375Y-31750D02*
G54D11*
D03*
X307975Y-31750D02*
G54D11*
D03*
X282417Y-31792D02*
G54D11*
D03*
X257175Y-31750D02*
G54D11*
D03*
X231775Y-31750D02*
G54D11*
D03*
X282248Y-84664D02*
G54D12*
D03*
X387023Y-84664D02*
G54D13*
D03*
X269875Y-171450D02*
G54D14*
D03*
X318275Y-171450D02*
G54D14*
D03*
X104775Y-31750D02*
G54D11*
D03*
X79375Y-31750D02*
G54D11*
D03*
X53817Y-31792D02*
G54D11*
D03*
X155575Y-31750D02*
G54D11*
D03*
X130175Y-31750D02*
G54D11*
D03*
X104617Y-31792D02*
G54D11*
D03*
X231775Y-31750D02*
G54D11*
D03*
X206375Y-31750D02*
G54D11*
D03*
X212725Y-187325D02*
G54D11*
D03*
X104775Y-161131D02*
G54D11*
D03*
X79375Y-161131D02*
G54D11*
D03*
X25400Y-133350D02*
G54D14*
D03*
X25400Y-57150D02*
G54D14*
D03*
X133350Y-158750D02*
G54D14*
D03*
X209550Y-158750D02*
G54D14*
D03*
X397925Y-28575D02*
G54D15*
D03*
X377825Y-28575D02*
G54D15*
D03*
X79375Y-161131D02*
G54D11*
D03*
X53975Y-161131D02*
G54D11*
D03*
X242600Y-154275D02*
G54D16*
D03*
X242600Y-182275D02*
G54D16*
D03*
X344200Y-154275D02*
G54D16*
D03*
X344200Y-182275D02*
G54D16*
D03*
X400042Y-181075D02*
G54D11*
D03*
X374642Y-181075D02*
G54D11*
D03*
X400050Y-155575D02*
G54D11*
D03*
X374650Y-155575D02*
G54D11*
D03*
X47298Y-191026D02*
G54D12*
D03*
X186998Y-191026D02*
G54D13*
D03*
X22225Y-187325D02*
G54D11*
D03*
X206375Y-31750D02*
G54D11*
D03*
X180975Y-31750D02*
G54D11*
D03*
M02*
