%FSLAX34Y34*%
%MOMM*%
%LNSILK_TOP*%
G71*
G01*
%ADD10C, 1.80*%
%ADD11C, 1.80*%
%ADD12C, 1.00*%
%ADD13C, 0.30*%
%ADD14C, 0.40*%
%ADD15C, 1.91*%
%ADD16C, 2.04*%
%ADD17C, 2.00*%
%ADD18C, 1.20*%
%ADD19C, 0.90*%
%ADD20C, 1.64*%
%ADD21C, 0.80*%
%ADD22R, 2.00X1.60*%
%ADD23C, 0.70*%
%ADD24C, 0.20*%
%ADD25C, 0.11*%
%ADD26C, 0.60*%
%ADD27C, 0.50*%
%ADD28C, 0.22*%
%LPD*%
G36*
X44975Y-124350D02*
X62975Y-124350D01*
X62975Y-142350D01*
X44975Y-142350D01*
X44975Y-124350D01*
G37*
X79375Y-133350D02*
G54D10*
D03*
X104775Y-133350D02*
G54D10*
D03*
X130175Y-133350D02*
G54D10*
D03*
X155575Y-133350D02*
G54D10*
D03*
X180975Y-133350D02*
G54D10*
D03*
X206375Y-133350D02*
G54D10*
D03*
X231775Y-133350D02*
G54D10*
D03*
X257175Y-133350D02*
G54D10*
D03*
X282575Y-133350D02*
G54D10*
D03*
X307975Y-133350D02*
G54D10*
D03*
X333375Y-133350D02*
G54D10*
D03*
X358775Y-133350D02*
G54D10*
D03*
X384175Y-133350D02*
G54D10*
D03*
X384175Y-57150D02*
G54D10*
D03*
X358775Y-57150D02*
G54D10*
D03*
X333375Y-57150D02*
G54D10*
D03*
X307975Y-57150D02*
G54D10*
D03*
X282575Y-57150D02*
G54D10*
D03*
X257175Y-57150D02*
G54D10*
D03*
X231775Y-57150D02*
G54D10*
D03*
X206375Y-57150D02*
G54D10*
D03*
X180975Y-57150D02*
G54D10*
D03*
X155575Y-57150D02*
G54D10*
D03*
X130175Y-57150D02*
G54D10*
D03*
X104775Y-57150D02*
G54D10*
D03*
X79375Y-57150D02*
G54D10*
D03*
X53975Y-57150D02*
G54D10*
D03*
X434975Y-120650D02*
G54D11*
D03*
X434975Y-95250D02*
G54D11*
D03*
X434975Y-69850D02*
G54D11*
D03*
X434975Y-44450D02*
G54D11*
D03*
X460375Y-120650D02*
G54D11*
D03*
X460375Y-95250D02*
G54D11*
D03*
X460375Y-69850D02*
G54D11*
D03*
X460375Y-44450D02*
G54D11*
D03*
X333375Y-31750D02*
G54D11*
D03*
X307975Y-31750D02*
G54D11*
D03*
X282417Y-31792D02*
G54D11*
D03*
X257175Y-31750D02*
G54D11*
D03*
X231775Y-31750D02*
G54D11*
D03*
G54D12*
X231775Y-31750D02*
X206375Y-31750D01*
X206375Y-57150D01*
G54D12*
X257175Y-31750D02*
X257175Y-57150D01*
G54D12*
X282417Y-31792D02*
X282417Y-56992D01*
X282575Y-57150D01*
G54D12*
X307975Y-31750D02*
X307975Y-57150D01*
G54D12*
X333375Y-31750D02*
X333375Y-57150D01*
G54D13*
X460375Y-44450D02*
X447675Y-57150D01*
X422275Y-57150D01*
X406400Y-41275D01*
X387350Y-41275D01*
X374650Y-28575D01*
X365125Y-19050D01*
X269875Y-19050D01*
X257175Y-31750D01*
G54D12*
X434975Y-73025D02*
X422275Y-73025D01*
X409575Y-60325D01*
X384175Y-60325D01*
G54D13*
X460375Y-69850D02*
X447675Y-82550D01*
X409575Y-82550D01*
X396875Y-69850D01*
X371475Y-69850D01*
X358775Y-57150D01*
G54D13*
X460375Y-95250D02*
X447675Y-107950D01*
X384175Y-107950D01*
X333375Y-57150D01*
G54D14*
X434975Y-120650D02*
X428633Y-120650D01*
X422175Y-114191D01*
X377716Y-114191D01*
X339725Y-76200D01*
X327025Y-76200D01*
X307975Y-57150D01*
X282248Y-84664D02*
G54D15*
D03*
X387023Y-84664D02*
G54D16*
D03*
G54D12*
X434975Y-95250D02*
X396022Y-95250D01*
X393373Y-92601D01*
G54D12*
X282575Y-86578D02*
X282575Y-57150D01*
G54D13*
X460375Y-120650D02*
X447675Y-133350D01*
X422275Y-133350D01*
X409575Y-120650D01*
X352425Y-120650D01*
X346075Y-114300D01*
X269875Y-171450D02*
G54D17*
D03*
X318275Y-171450D02*
G54D17*
D03*
X104775Y-31750D02*
G54D11*
D03*
X79375Y-31750D02*
G54D11*
D03*
X53817Y-31792D02*
G54D11*
D03*
X155575Y-31750D02*
G54D11*
D03*
X130175Y-31750D02*
G54D11*
D03*
X104617Y-31792D02*
G54D11*
D03*
X231775Y-31750D02*
G54D11*
D03*
X206375Y-31750D02*
G54D11*
D03*
G54D12*
X53817Y-31792D02*
X53817Y-56992D01*
X53975Y-57150D01*
G54D12*
X79375Y-31750D02*
X79375Y-57150D01*
G54D12*
X104775Y-31750D02*
X104775Y-57150D01*
G54D12*
X130017Y-31792D02*
X130017Y-56992D01*
X130175Y-57150D01*
G54D12*
X155575Y-31750D02*
X155575Y-57150D01*
X212725Y-187325D02*
G54D11*
D03*
X104775Y-161131D02*
G54D11*
D03*
X79375Y-161131D02*
G54D11*
D03*
G54D18*
X209550Y-133350D02*
X209550Y-184150D01*
X25400Y-133350D02*
G54D17*
D03*
X25400Y-57150D02*
G54D17*
D03*
G54D19*
X28575Y-57150D02*
X28575Y-25400D01*
X41275Y-12700D01*
X187325Y-12700D01*
X206375Y-31750D01*
G54D12*
X180975Y-57150D02*
X180975Y-69850D01*
X174625Y-76200D01*
X34925Y-76200D01*
X28575Y-82550D01*
X28575Y-133350D01*
G54D12*
X155575Y-133350D02*
X155575Y-158750D01*
X180975Y-184150D01*
X133350Y-158750D02*
G54D17*
D03*
X209550Y-158750D02*
G54D17*
D03*
G54D12*
X79375Y-133350D02*
X79375Y-155575D01*
X76200Y-158750D01*
G54D12*
X104775Y-133350D02*
X104775Y-155575D01*
X101600Y-158750D01*
G54D14*
X28575Y-133350D02*
X28575Y-165100D01*
X38100Y-174625D01*
X117475Y-174625D01*
X130175Y-161925D01*
G54D14*
X28575Y-57150D02*
X9525Y-76200D01*
X9525Y-174625D01*
X22225Y-187325D01*
X47625Y-187325D01*
X397925Y-28575D02*
G54D20*
D03*
X377825Y-28575D02*
G54D20*
D03*
G54D12*
X460375Y-44450D02*
X476250Y-60325D01*
X476250Y-200025D01*
X225425Y-200025D01*
X212725Y-187325D01*
X79375Y-161131D02*
G54D11*
D03*
X53975Y-161131D02*
G54D11*
D03*
G54D21*
X53975Y-133350D02*
X53975Y-155575D01*
X50800Y-158750D01*
G54D12*
X21898Y-191026D02*
X47298Y-191026D01*
X242600Y-154275D02*
G54D22*
D03*
X242600Y-182275D02*
G54D22*
D03*
X344200Y-154275D02*
G54D22*
D03*
X344200Y-182275D02*
G54D22*
D03*
G54D23*
X247650Y-187325D02*
X400050Y-187325D01*
G54D21*
X269875Y-171450D02*
X269875Y-165100D01*
X260350Y-155575D01*
X260350Y-136525D01*
X257175Y-133350D01*
G54D21*
X260350Y-155575D02*
X244475Y-155575D01*
X242600Y-157450D01*
G54D21*
X282575Y-133350D02*
X282575Y-139700D01*
X304800Y-161925D01*
X339725Y-161925D01*
X344200Y-157450D01*
X400042Y-181075D02*
G54D11*
D03*
X374642Y-181075D02*
G54D11*
D03*
X400050Y-155575D02*
G54D11*
D03*
X374650Y-155575D02*
G54D11*
D03*
G54D21*
X358775Y-133350D02*
X371475Y-146050D01*
X371475Y-155575D01*
G54D21*
X384175Y-133350D02*
X387350Y-133350D01*
X396875Y-142875D01*
X396875Y-155575D01*
X47298Y-191026D02*
G54D15*
D03*
X186998Y-191026D02*
G54D16*
D03*
X22225Y-187325D02*
G54D11*
D03*
G54D14*
X106306Y-113662D02*
X106306Y-91440D01*
X92973Y-113662D01*
X92973Y-91440D01*
G54D14*
X85206Y-91440D02*
X85206Y-109496D01*
X83540Y-112274D01*
X80206Y-113662D01*
X76873Y-113662D01*
X73540Y-112274D01*
X71873Y-109496D01*
X71873Y-91440D01*
G54D14*
X64106Y-91440D02*
X47440Y-113662D01*
G54D14*
X64106Y-113662D02*
X47440Y-91440D01*
G54D24*
X112712Y-85725D02*
X42862Y-85725D01*
X42862Y-119062D01*
X112712Y-119062D01*
X112712Y-85725D01*
X142875Y-85725D01*
X142875Y-119062D01*
X112712Y-119062D01*
G54D24*
X121762Y-106231D02*
X123362Y-103531D01*
X124762Y-101431D01*
X129062Y-99631D01*
X132462Y-99531D01*
X134462Y-98931D01*
X135162Y-97831D01*
X135162Y-96531D01*
X134662Y-95331D01*
X132762Y-94431D01*
X130662Y-94431D01*
X128562Y-95231D01*
X127462Y-97231D01*
X126062Y-98531D01*
X124162Y-98631D01*
X122562Y-97631D01*
X121862Y-96331D01*
X121962Y-94631D01*
X124562Y-90531D01*
X129362Y-88431D01*
X133662Y-88431D01*
X138562Y-90431D01*
X141162Y-94731D01*
X141162Y-99231D01*
X138762Y-103331D01*
X133862Y-105531D01*
X130562Y-105531D01*
X128662Y-106331D01*
X127862Y-107631D01*
X127862Y-108731D01*
X128862Y-110131D01*
X130762Y-110731D01*
X132762Y-110631D01*
X134662Y-109731D01*
X136162Y-107131D01*
X138062Y-106331D01*
X139562Y-106831D01*
X140762Y-107731D01*
X141162Y-108831D01*
X140962Y-110831D01*
X138462Y-114731D01*
X133762Y-116631D01*
X129262Y-116731D01*
X124962Y-114731D01*
X121862Y-110531D01*
X121862Y-108231D01*
X121862Y-106231D01*
G54D24*
X114062Y-91331D02*
X114062Y-114331D01*
X114462Y-115231D01*
X115462Y-116231D01*
X116662Y-116731D01*
X117962Y-116631D01*
X119162Y-115831D01*
X119962Y-114931D01*
X120162Y-113531D01*
X120162Y-92031D01*
X119662Y-89731D01*
X118562Y-88731D01*
X116962Y-88231D01*
X116762Y-88431D01*
X115562Y-88731D01*
X114362Y-89831D01*
X114262Y-90531D01*
G54D24*
X114300Y-88900D02*
X114300Y-87312D01*
X119062Y-87312D01*
X141288Y-87312D01*
X141288Y-92869D01*
X142081Y-93662D01*
X142081Y-92075D01*
X139700Y-89694D01*
X139700Y-88900D01*
X137319Y-88900D01*
X136525Y-88106D01*
X127000Y-88106D01*
X126206Y-88900D01*
X119856Y-88900D01*
X119856Y-89694D01*
X120650Y-90487D01*
X123031Y-90488D01*
X121444Y-92075D01*
X121444Y-93662D01*
X121444Y-103981D01*
X120650Y-104775D01*
X120650Y-103981D01*
X123031Y-101600D01*
X123031Y-99219D01*
X123825Y-99219D01*
X124619Y-100012D01*
X126206Y-100012D01*
X127794Y-98425D01*
X132556Y-98425D01*
X133350Y-97631D01*
X133350Y-96044D01*
X130175Y-96044D01*
X129381Y-96838D01*
X132556Y-96837D01*
G54D24*
X114300Y-115888D02*
X114300Y-117475D01*
X141288Y-117475D01*
X141288Y-112712D01*
X142081Y-111919D01*
X142081Y-112712D01*
X139700Y-115094D01*
X139700Y-115888D01*
X138112Y-115887D01*
X136525Y-115888D01*
X135731Y-116681D01*
X125412Y-116681D01*
X120650Y-116681D01*
X120650Y-115887D01*
X121444Y-115094D01*
X123031Y-115094D01*
X123825Y-115887D01*
X123825Y-114300D01*
X121444Y-111919D01*
X121444Y-113506D01*
G54D24*
X141288Y-100012D02*
X141288Y-107156D01*
X141288Y-106362D01*
X140494Y-105569D01*
X140494Y-103188D01*
X140494Y-103981D01*
X138906Y-105569D01*
X136525Y-105569D01*
X135731Y-106362D01*
X130969Y-106362D01*
X130175Y-107156D01*
X134144Y-107156D01*
X134144Y-108744D01*
X130175Y-108744D01*
X129381Y-107950D01*
G54D24*
X130175Y-96837D02*
X129381Y-96838D01*
X127794Y-98425D01*
X127794Y-99219D01*
X127000Y-100012D01*
X123825Y-100012D01*
X123031Y-99219D01*
G54D24*
X119856Y-88106D02*
X122238Y-88106D01*
X123825Y-89694D01*
G54D14*
X130175Y-133350D02*
X136525Y-133350D01*
X155575Y-114300D01*
X346075Y-114300D01*
X352425Y-120650D01*
G54D25*
X290211Y-107950D02*
X290211Y-99061D01*
X286878Y-104617D01*
X283544Y-99061D01*
X283544Y-107950D01*
G54D25*
X281100Y-102950D02*
X278433Y-107950D01*
X275767Y-102950D01*
G54D25*
X278433Y-107950D02*
X279100Y-109617D01*
X279767Y-110172D01*
X280433Y-110172D01*
G54D25*
X273323Y-106283D02*
X272656Y-107394D01*
X271323Y-107950D01*
X269990Y-107950D01*
X268656Y-107394D01*
X267990Y-106283D01*
X267990Y-105172D01*
X268656Y-104061D01*
X269990Y-103506D01*
X271323Y-103506D01*
X272656Y-102950D01*
X273323Y-101839D01*
X273323Y-100728D01*
X272656Y-99617D01*
X271323Y-99061D01*
X269990Y-99061D01*
X268656Y-99617D01*
X267990Y-100728D01*
G54D25*
X261546Y-107394D02*
X262613Y-107950D01*
X263946Y-107950D01*
X265279Y-107394D01*
X265546Y-106283D01*
X265546Y-104394D01*
X264879Y-103283D01*
X263546Y-102950D01*
X262213Y-103283D01*
X261546Y-104061D01*
X261546Y-105172D01*
X265546Y-105172D01*
G54D25*
X259102Y-107950D02*
X259102Y-102950D01*
G54D25*
X259102Y-104061D02*
X258435Y-103283D01*
X257102Y-102950D01*
X255769Y-103283D01*
X255102Y-104061D01*
X255102Y-107950D01*
G54D25*
X252658Y-107394D02*
X251325Y-107950D01*
X249991Y-107950D01*
X248658Y-107394D01*
X248658Y-106283D01*
X249325Y-105728D01*
X251991Y-105172D01*
X252658Y-104617D01*
X252658Y-103506D01*
X251325Y-102950D01*
X249991Y-102950D01*
X248658Y-103506D01*
G54D25*
X242214Y-106617D02*
X242214Y-104394D01*
X242881Y-103283D01*
X244214Y-102950D01*
X245547Y-103283D01*
X246214Y-104394D01*
X246214Y-106617D01*
X245547Y-107728D01*
X244214Y-107950D01*
X242881Y-107728D01*
X242214Y-106617D01*
G54D25*
X239770Y-107950D02*
X239770Y-102950D01*
G54D25*
X239770Y-104061D02*
X238437Y-102950D01*
X237103Y-102950D01*
G54D25*
X234659Y-107394D02*
X233326Y-107950D01*
X231992Y-107950D01*
X230659Y-107394D01*
X230659Y-106283D01*
X231326Y-105728D01*
X233992Y-105172D01*
X234659Y-104617D01*
X234659Y-103506D01*
X233326Y-102950D01*
X231992Y-102950D01*
X230659Y-103506D01*
G54D25*
X225638Y-106283D02*
X224971Y-107394D01*
X223638Y-107950D01*
X222305Y-107950D01*
X220971Y-107394D01*
X220305Y-106283D01*
X220305Y-105172D01*
X220971Y-104061D01*
X222305Y-103506D01*
X223638Y-103506D01*
X224971Y-102950D01*
X225638Y-101839D01*
X225638Y-100728D01*
X224971Y-99617D01*
X223638Y-99061D01*
X222305Y-99061D01*
X220971Y-99617D01*
X220305Y-100728D01*
G54D25*
X217861Y-107950D02*
X217861Y-99061D01*
G54D25*
X215417Y-107950D02*
X215417Y-102950D01*
G54D25*
X215417Y-101283D02*
X215417Y-101283D01*
G54D25*
X212973Y-107950D02*
X212973Y-102950D01*
G54D25*
X212973Y-103839D02*
X211640Y-102950D01*
X210306Y-103283D01*
X209640Y-104061D01*
X209640Y-107950D01*
G54D25*
X209640Y-103839D02*
X208306Y-102950D01*
X206973Y-103283D01*
X206306Y-104061D01*
X206306Y-107950D01*
G54D25*
X198529Y-99061D02*
X198529Y-106283D01*
X199195Y-107394D01*
X200529Y-107950D01*
X201862Y-107950D01*
X203195Y-107394D01*
X203862Y-106283D01*
G54D25*
X196085Y-107950D02*
X196085Y-99061D01*
G54D25*
X193641Y-107950D02*
X193641Y-99061D01*
X190308Y-104617D01*
X186974Y-99061D01*
X186974Y-107950D01*
G54D25*
X181953Y-106283D02*
X181286Y-107394D01*
X179953Y-107950D01*
X178620Y-107950D01*
X177286Y-107394D01*
X176620Y-106283D01*
X176620Y-105172D01*
X177286Y-104061D01*
X178620Y-103506D01*
X179953Y-103506D01*
X181286Y-102950D01*
X181953Y-101839D01*
X181953Y-100728D01*
X181286Y-99617D01*
X179953Y-99061D01*
X178620Y-99061D01*
X177286Y-99617D01*
X176620Y-100728D01*
G54D25*
X174176Y-107950D02*
X174176Y-99061D01*
G54D25*
X174176Y-104394D02*
X173509Y-103283D01*
X172176Y-102950D01*
X170843Y-103283D01*
X170176Y-104394D01*
X170176Y-107950D01*
G54D25*
X167732Y-107950D02*
X167732Y-102950D01*
G54D25*
X167732Y-101283D02*
X167732Y-101283D01*
G54D25*
X161288Y-107394D02*
X162355Y-107950D01*
X163688Y-107950D01*
X165021Y-107394D01*
X165288Y-106283D01*
X165288Y-104394D01*
X164621Y-103283D01*
X163288Y-102950D01*
X161955Y-103283D01*
X161288Y-104061D01*
X161288Y-105172D01*
X165288Y-105172D01*
G54D25*
X158844Y-107950D02*
X158844Y-99061D01*
G54D25*
X152400Y-107950D02*
X152400Y-99061D01*
G54D25*
X152400Y-104394D02*
X153067Y-103283D01*
X154400Y-102950D01*
X155733Y-103283D01*
X156400Y-104394D01*
X156400Y-106617D01*
X155733Y-107728D01*
X154400Y-107950D01*
X153067Y-107728D01*
X152400Y-106617D01*
G54D26*
X231775Y-31750D02*
X252412Y-11112D01*
X380463Y-11112D01*
X397925Y-28575D01*
X206375Y-31750D02*
G54D11*
D03*
X180975Y-31750D02*
G54D11*
D03*
G54D19*
X180975Y-31750D02*
X181769Y-31750D01*
X193675Y-19844D01*
G54D27*
X231775Y-133350D02*
X231775Y-134937D01*
X225425Y-141288D01*
X225425Y-173831D01*
X234950Y-183356D01*
G54D12*
X434975Y-44450D02*
X419100Y-28575D01*
X397925Y-28575D01*
G54D28*
X483886Y-15400D02*
X478553Y-25400D01*
X473219Y-15400D01*
G54D28*
X468330Y-25400D02*
X468330Y-25400D01*
G54D28*
X463441Y-14289D02*
X456774Y-7622D01*
X456774Y-25400D01*
G54D28*
X451885Y-25400D02*
X451885Y-25400D01*
G54D28*
X436329Y-10956D02*
X436329Y-22067D01*
X437663Y-24289D01*
X440329Y-25400D01*
X442996Y-25400D01*
X445663Y-24289D01*
X446996Y-22067D01*
X446996Y-10956D01*
X445663Y-8733D01*
X442996Y-7622D01*
X440329Y-7622D01*
X437663Y-8733D01*
X436329Y-10956D01*
M02*
