%FSLAX34Y34*%
%MOMM*%
%LNCOPPER_BOTTOM*%
G71*
G01*
%ADD10C, 0.15*%
%ADD11C, 0.11*%
%ADD12C, 0.06*%
%ADD13C, 0.11*%
%ADD14C, 0.20*%
%ADD15C, 0.10*%
%ADD16C, 0.09*%
%LPD*%
G54D10*
X41275Y-69850D02*
X41275Y-120650D01*
X396875Y-120650D01*
X396875Y-69850D01*
X41275Y-69850D01*
G54D10*
X41275Y-82550D02*
X41275Y-107950D01*
X53975Y-107950D01*
X53975Y-82550D01*
X41275Y-82550D01*
G54D11*
X127011Y-95731D02*
X130344Y-86842D01*
X133678Y-95731D01*
G54D11*
X128344Y-92398D02*
X132344Y-92398D01*
G54D11*
X138778Y-95731D02*
X138778Y-86842D01*
G54D11*
X136111Y-86842D02*
X141444Y-86842D01*
G54D11*
X143811Y-95732D02*
X143811Y-86842D01*
X147144Y-92398D01*
X150478Y-86842D01*
X150478Y-95731D01*
G54D11*
X157578Y-95731D02*
X152911Y-95731D01*
X152911Y-86842D01*
X157578Y-86842D01*
G54D11*
X152911Y-91287D02*
X157578Y-91287D01*
G54D11*
X162678Y-91287D02*
X165344Y-91287D01*
X165344Y-94065D01*
X164678Y-95176D01*
X163344Y-95731D01*
X162011Y-95731D01*
X160678Y-95176D01*
X160011Y-94064D01*
X160011Y-88509D01*
X160678Y-87398D01*
X162011Y-86842D01*
X163344Y-86842D01*
X164678Y-87398D01*
X165344Y-88509D01*
G54D11*
X167711Y-95731D02*
X171044Y-86842D01*
X174378Y-95731D01*
G54D11*
X169044Y-92398D02*
X173044Y-92398D01*
G54D11*
X179311Y-88509D02*
X179978Y-87398D01*
X181311Y-86842D01*
X182644Y-86842D01*
X183978Y-87398D01*
X184644Y-88509D01*
X184644Y-89620D01*
X183978Y-90731D01*
X182644Y-91287D01*
X183978Y-91842D01*
X184644Y-92954D01*
X184644Y-94065D01*
X183978Y-95176D01*
X182644Y-95731D01*
X181311Y-95731D01*
X179978Y-95176D01*
X179311Y-94064D01*
G54D11*
X192344Y-95731D02*
X187011Y-95731D01*
X187011Y-95176D01*
X187678Y-94065D01*
X191678Y-90731D01*
X192344Y-89620D01*
X192344Y-88509D01*
X191678Y-87398D01*
X190344Y-86842D01*
X189011Y-86842D01*
X187678Y-87398D01*
X187011Y-88509D01*
G54D11*
X198044Y-91287D02*
X196711Y-91287D01*
X195378Y-90731D01*
X194711Y-89620D01*
X194711Y-88509D01*
X195378Y-87398D01*
X196711Y-86842D01*
X198044Y-86842D01*
X199378Y-87398D01*
X200044Y-88509D01*
X200044Y-89620D01*
X199378Y-90731D01*
X198044Y-91287D01*
X199378Y-91842D01*
X200044Y-92954D01*
X200044Y-94065D01*
X199378Y-95176D01*
X198044Y-95731D01*
X196711Y-95731D01*
X195378Y-95176D01*
X194711Y-94065D01*
X194711Y-92954D01*
X195378Y-91842D01*
X196711Y-91287D01*
G54D11*
X202411Y-95731D02*
X202411Y-86842D01*
X205744Y-86842D01*
X207078Y-87398D01*
X207744Y-88509D01*
X207744Y-89620D01*
X207078Y-90731D01*
X205744Y-91287D01*
X202411Y-91287D01*
G54D11*
X212611Y-95731D02*
X215944Y-86842D01*
X219278Y-95731D01*
G54D11*
X213944Y-92398D02*
X217944Y-92398D01*
G54D11*
X221711Y-95731D02*
X221711Y-90731D01*
G54D11*
X221711Y-91842D02*
X223044Y-90731D01*
X224378Y-90731D01*
G54D11*
X230811Y-95731D02*
X230811Y-86842D01*
G54D11*
X230811Y-92176D02*
X230144Y-91065D01*
X228811Y-90731D01*
X227478Y-91064D01*
X226811Y-92176D01*
X226811Y-94398D01*
X227478Y-95509D01*
X228811Y-95731D01*
X230144Y-95509D01*
X230811Y-94398D01*
G54D11*
X237211Y-90731D02*
X237211Y-95731D01*
G54D11*
X237211Y-94620D02*
X236544Y-95509D01*
X235211Y-95731D01*
X233878Y-95509D01*
X233211Y-94620D01*
X233211Y-90731D01*
G54D11*
X239611Y-95732D02*
X239611Y-90731D01*
G54D11*
X239611Y-89064D02*
X239611Y-89064D01*
G54D11*
X242011Y-95731D02*
X242011Y-90731D01*
G54D11*
X242011Y-91842D02*
X242678Y-91065D01*
X244011Y-90731D01*
X245344Y-91065D01*
X246011Y-91842D01*
X246011Y-95731D01*
G54D11*
X252411Y-94398D02*
X252411Y-92176D01*
X251744Y-91065D01*
X250411Y-90731D01*
X249078Y-91064D01*
X248411Y-92176D01*
X248411Y-94398D01*
X249078Y-95509D01*
X250411Y-95731D01*
X251744Y-95509D01*
X252411Y-94398D01*
G54D11*
X257311Y-95731D02*
X257311Y-86842D01*
X260644Y-86842D01*
X261978Y-87398D01*
X262644Y-88509D01*
X262644Y-89620D01*
X261978Y-90731D01*
X260644Y-91287D01*
X257311Y-91287D01*
G54D11*
X265011Y-95731D02*
X265011Y-90731D01*
G54D11*
X265011Y-89065D02*
X265011Y-89065D01*
G54D11*
X267411Y-95732D02*
X267411Y-90731D01*
G54D11*
X267411Y-91842D02*
X268078Y-91065D01*
X269411Y-90731D01*
X270744Y-91064D01*
X271411Y-91842D01*
X271411Y-95731D01*
G54D11*
X277811Y-94398D02*
X277811Y-92176D01*
X277144Y-91065D01*
X275811Y-90731D01*
X274478Y-91065D01*
X273811Y-92176D01*
X273811Y-94398D01*
X274478Y-95509D01*
X275811Y-95732D01*
X277144Y-95509D01*
X277811Y-94398D01*
G54D11*
X284211Y-90731D02*
X284211Y-95731D01*
G54D11*
X284211Y-94620D02*
X283544Y-95509D01*
X282211Y-95732D01*
X280878Y-95509D01*
X280211Y-94620D01*
X280211Y-90731D01*
G54D11*
X287944Y-86842D02*
X287944Y-95176D01*
X288611Y-95732D01*
X289278Y-95509D01*
G54D11*
X286611Y-90731D02*
X289278Y-90731D01*
G54D11*
X48028Y-113512D02*
X50028Y-114623D01*
X50694Y-115734D01*
X50694Y-117956D01*
G54D11*
X45361Y-117956D02*
X45361Y-109068D01*
X48694Y-109068D01*
X50028Y-109623D01*
X50694Y-110734D01*
X50694Y-111845D01*
X50028Y-112956D01*
X48694Y-113512D01*
X45361Y-113512D01*
G54D11*
X53061Y-116290D02*
X53728Y-117401D01*
X55061Y-117956D01*
X56394Y-117956D01*
X57728Y-117401D01*
X58394Y-116290D01*
X58394Y-115178D01*
X57728Y-114068D01*
X56394Y-113512D01*
X55061Y-113512D01*
X53728Y-112956D01*
X53061Y-111845D01*
X53061Y-110734D01*
X53728Y-109623D01*
X55061Y-109068D01*
X56394Y-109068D01*
X57728Y-109623D01*
X58394Y-110734D01*
G54D11*
X63428Y-117956D02*
X63428Y-109068D01*
G54D11*
X60761Y-109068D02*
X66094Y-109068D01*
G54D11*
X101686Y-112401D02*
X105019Y-109068D01*
X105019Y-117956D01*
G54D11*
X80619Y-110734D02*
X80619Y-116290D01*
X79953Y-117401D01*
X78619Y-117956D01*
X77286Y-117956D01*
X75953Y-117401D01*
X75286Y-116290D01*
X75286Y-110734D01*
X75953Y-109623D01*
X77286Y-109068D01*
X78619Y-109068D01*
X79953Y-109623D01*
X80619Y-110734D01*
G54D11*
X131419Y-117956D02*
X126086Y-117956D01*
X126086Y-117401D01*
X126753Y-116290D01*
X130753Y-112956D01*
X131419Y-111845D01*
X131419Y-110734D01*
X130753Y-109623D01*
X129419Y-109068D01*
X128086Y-109068D01*
X126753Y-109623D01*
X126086Y-110734D01*
G54D11*
X151486Y-110734D02*
X152153Y-109623D01*
X153486Y-109068D01*
X154819Y-109068D01*
X156153Y-109623D01*
X156819Y-110734D01*
X156819Y-111845D01*
X156153Y-112956D01*
X154819Y-113512D01*
X156153Y-114068D01*
X156819Y-115178D01*
X156819Y-116290D01*
X156153Y-117401D01*
X154819Y-117956D01*
X153486Y-117956D01*
X152153Y-117401D01*
X151486Y-116290D01*
G54D11*
X180886Y-117956D02*
X180886Y-109068D01*
X176886Y-114623D01*
X176886Y-115734D01*
X182219Y-115734D01*
G54D11*
X202286Y-113518D02*
X207619Y-113517D01*
G54D11*
X204953Y-111295D02*
X204953Y-115740D01*
G54D11*
X227686Y-113518D02*
X233019Y-113517D01*
G54D11*
X256019Y-116290D02*
X255353Y-117401D01*
X254020Y-117956D01*
X252686Y-117956D01*
X251353Y-117401D01*
X250686Y-116290D01*
X250686Y-110734D01*
X251353Y-109623D01*
X252686Y-109068D01*
X254019Y-109068D01*
X255353Y-109623D01*
X256019Y-110734D01*
G54D11*
X258386Y-109068D02*
X258386Y-117956D01*
X263053Y-117956D01*
G54D11*
X270819Y-110734D02*
X270820Y-116290D01*
X270153Y-117401D01*
X268819Y-117956D01*
X267486Y-117956D01*
X266153Y-117401D01*
X265486Y-116290D01*
X265486Y-110734D01*
X266153Y-109623D01*
X267486Y-109068D01*
X268819Y-109068D01*
X270153Y-109623D01*
X270819Y-110734D01*
G54D11*
X278519Y-116290D02*
X277853Y-117401D01*
X276519Y-117956D01*
X275186Y-117956D01*
X273853Y-117401D01*
X273186Y-116290D01*
X273186Y-110734D01*
X273853Y-109623D01*
X275186Y-109068D01*
X276519Y-109068D01*
X277853Y-109623D01*
X278519Y-110734D01*
G54D11*
X280886Y-117956D02*
X280886Y-109067D01*
G54D11*
X280886Y-115178D02*
X286219Y-109068D01*
G54D11*
X282886Y-113512D02*
X286219Y-117956D01*
G54D11*
X309219Y-109067D02*
X303886Y-109068D01*
X303886Y-112956D01*
X304553Y-112956D01*
X305886Y-112401D01*
X307219Y-112401D01*
X308553Y-112956D01*
X309219Y-114068D01*
X309219Y-116290D01*
X308553Y-117401D01*
X307219Y-117956D01*
X305886Y-117956D01*
X304553Y-117401D01*
X303886Y-116290D01*
G54D11*
X334619Y-110734D02*
X333953Y-109623D01*
X332619Y-109068D01*
X331286Y-109068D01*
X329953Y-109623D01*
X329286Y-110734D01*
X329286Y-113512D01*
X329286Y-114068D01*
X331286Y-112956D01*
X332619Y-112956D01*
X333953Y-113512D01*
X334619Y-114623D01*
X334619Y-116290D01*
X333953Y-117401D01*
X332619Y-117956D01*
X331286Y-117956D01*
X329953Y-117401D01*
X329286Y-116290D01*
X329286Y-113512D01*
G54D11*
X354686Y-109068D02*
X360019Y-109068D01*
X359353Y-110178D01*
X358019Y-111845D01*
X356686Y-114068D01*
X356019Y-115734D01*
X356019Y-117956D01*
G54D11*
X383419Y-113512D02*
X382086Y-113512D01*
X380753Y-112956D01*
X380086Y-111845D01*
X380086Y-110734D01*
X380753Y-109623D01*
X382086Y-109068D01*
X383419Y-109067D01*
X384753Y-109623D01*
X385419Y-110734D01*
X385419Y-111845D01*
X384753Y-112956D01*
X383419Y-113512D01*
X384753Y-114068D01*
X385419Y-115178D01*
X385419Y-116290D01*
X384753Y-117401D01*
X383419Y-117956D01*
X382086Y-117956D01*
X380753Y-117401D01*
X380086Y-116290D01*
X380086Y-115178D01*
X380753Y-114068D01*
X382086Y-113512D01*
G54D12*
X300736Y-103006D02*
X300736Y-98562D01*
X302403Y-98562D01*
X303069Y-98840D01*
X303403Y-99395D01*
X303403Y-99951D01*
X303069Y-100506D01*
X302403Y-100784D01*
X300736Y-100784D01*
G54D12*
X304636Y-98562D02*
X304636Y-103006D01*
X306303Y-100228D01*
X307969Y-103006D01*
X307969Y-98562D01*
G54D12*
X309136Y-103006D02*
X309136Y-98562D01*
X310803Y-101340D01*
X312469Y-98562D01*
X312469Y-103006D01*
G54D12*
X326136Y-103006D02*
X326136Y-98562D01*
X327803Y-98562D01*
X328469Y-98840D01*
X328803Y-99395D01*
X328803Y-99951D01*
X328469Y-100506D01*
X327803Y-100784D01*
X326136Y-100784D01*
G54D12*
X330036Y-98562D02*
X330036Y-103006D01*
X331703Y-100229D01*
X333369Y-103006D01*
X333369Y-98562D01*
G54D12*
X334536Y-103006D02*
X334536Y-98562D01*
X336203Y-101340D01*
X337869Y-98562D01*
X337869Y-103006D01*
G54D12*
X376936Y-90306D02*
X376936Y-85862D01*
X378603Y-85862D01*
X379269Y-86140D01*
X379603Y-86695D01*
X379603Y-87250D01*
X379269Y-87806D01*
X378603Y-88084D01*
X376936Y-88084D01*
G54D12*
X380836Y-85862D02*
X380836Y-90306D01*
X382503Y-87528D01*
X384169Y-90306D01*
X384169Y-85862D01*
G54D12*
X385336Y-90306D02*
X385336Y-85862D01*
X387003Y-88640D01*
X388669Y-85862D01*
X388669Y-90306D01*
G54D12*
X351536Y-90306D02*
X351536Y-85862D01*
X353203Y-85862D01*
X353869Y-86140D01*
X354203Y-86695D01*
X354203Y-87251D01*
X353869Y-87806D01*
X353203Y-88084D01*
X351536Y-88084D01*
G54D12*
X355436Y-85862D02*
X355436Y-90306D01*
X357103Y-87528D01*
X358769Y-90306D01*
X358769Y-85862D01*
G54D12*
X359936Y-90306D02*
X359936Y-85862D01*
X361603Y-88640D01*
X363269Y-85862D01*
X363269Y-90306D01*
G54D12*
X326136Y-90306D02*
X326136Y-85862D01*
X327803Y-85862D01*
X328469Y-86140D01*
X328803Y-86695D01*
X328803Y-87251D01*
X328469Y-87806D01*
X327803Y-88084D01*
X326136Y-88084D01*
G54D12*
X330036Y-85862D02*
X330036Y-90306D01*
X331703Y-87528D01*
X333369Y-90306D01*
X333369Y-85862D01*
G54D12*
X334536Y-90306D02*
X334536Y-85862D01*
X336203Y-88640D01*
X337869Y-85862D01*
X337869Y-90306D01*
G54D11*
X380086Y-81365D02*
X380753Y-82476D01*
X382086Y-83031D01*
X383419Y-83031D01*
X384753Y-82476D01*
X385419Y-81364D01*
X385419Y-78587D01*
X385419Y-78031D01*
X383419Y-79142D01*
X382086Y-79142D01*
X380753Y-78587D01*
X380086Y-77476D01*
X380086Y-75809D01*
X380753Y-74698D01*
X382086Y-74142D01*
X383419Y-74142D01*
X384753Y-74698D01*
X385419Y-75809D01*
X385419Y-78587D01*
G54D11*
X351836Y-77476D02*
X355169Y-74142D01*
X355169Y-83031D01*
G54D11*
X362869Y-75809D02*
X362869Y-81365D01*
X362203Y-82476D01*
X360869Y-83031D01*
X359536Y-83031D01*
X358203Y-82476D01*
X357536Y-81365D01*
X357536Y-75809D01*
X358203Y-74698D01*
X359536Y-74142D01*
X360869Y-74142D01*
X362203Y-74698D01*
X362869Y-75809D01*
G54D11*
X327436Y-77476D02*
X330769Y-74142D01*
X330769Y-83031D01*
G54D11*
X333136Y-77476D02*
X336469Y-74142D01*
X336469Y-83031D01*
G54D11*
X301036Y-77476D02*
X304369Y-74142D01*
X304369Y-83031D01*
G54D11*
X312069Y-83031D02*
X306736Y-83031D01*
X306736Y-82476D01*
X307403Y-81365D01*
X311403Y-78031D01*
X312069Y-76920D01*
X312069Y-75809D01*
X311403Y-74698D01*
X310069Y-74142D01*
X308736Y-74142D01*
X307403Y-74698D01*
X306736Y-75809D01*
G54D11*
X275636Y-77476D02*
X278969Y-74142D01*
X278969Y-83031D01*
G54D11*
X281336Y-75809D02*
X282003Y-74698D01*
X283336Y-74142D01*
X284669Y-74142D01*
X286003Y-74698D01*
X286669Y-75809D01*
X286669Y-76920D01*
X286003Y-78031D01*
X284669Y-78587D01*
X286003Y-79142D01*
X286669Y-80254D01*
X286669Y-81365D01*
X286003Y-82476D01*
X284669Y-83031D01*
X283336Y-83031D01*
X282003Y-82476D01*
X281336Y-81365D01*
G54D12*
X275936Y-67248D02*
X276269Y-67804D01*
X276936Y-68081D01*
X277603Y-68081D01*
X278269Y-67804D01*
X278603Y-67248D01*
X278603Y-66692D01*
X278270Y-66137D01*
X277603Y-65859D01*
X276936Y-65859D01*
X276269Y-65581D01*
X275936Y-65026D01*
X275936Y-64470D01*
X276269Y-63914D01*
X276936Y-63637D01*
X277603Y-63637D01*
X278269Y-63914D01*
X278603Y-64470D01*
G54D12*
X282503Y-67248D02*
X282169Y-67804D01*
X281503Y-68081D01*
X280836Y-68081D01*
X280169Y-67803D01*
X279836Y-67248D01*
X279836Y-64470D01*
X280169Y-63915D01*
X280836Y-63637D01*
X281503Y-63637D01*
X282169Y-63914D01*
X282503Y-64470D01*
G54D12*
X283736Y-68081D02*
X283736Y-63637D01*
G54D12*
X283736Y-66692D02*
X286403Y-63637D01*
G54D12*
X284736Y-65859D02*
X286403Y-68081D01*
G54D12*
X300436Y-68081D02*
X300436Y-63637D01*
X302103Y-66415D01*
X303769Y-63637D01*
X303769Y-68081D01*
G54D12*
X304936Y-68081D02*
X304936Y-63637D01*
G54D12*
X306136Y-67248D02*
X306469Y-67804D01*
X307136Y-68081D01*
X307803Y-68081D01*
X308469Y-67804D01*
X308803Y-67248D01*
X308803Y-66692D01*
X308469Y-66137D01*
X307803Y-65859D01*
X307136Y-65859D01*
X306469Y-65581D01*
X306136Y-65026D01*
X306136Y-64470D01*
X306469Y-63915D01*
X307136Y-63637D01*
X307803Y-63637D01*
X308469Y-63914D01*
X308803Y-64470D01*
G54D12*
X312703Y-64470D02*
X312703Y-67248D01*
X312369Y-67804D01*
X311703Y-68081D01*
X311036Y-68081D01*
X310370Y-67804D01*
X310036Y-67248D01*
X310036Y-64470D01*
X310369Y-63915D01*
X311036Y-63637D01*
X311703Y-63637D01*
X312369Y-63914D01*
X312703Y-64470D01*
G54D12*
X325836Y-68081D02*
X325836Y-63637D01*
X327503Y-66415D01*
X329169Y-63637D01*
X329169Y-68081D01*
G54D12*
X333003Y-64470D02*
X333003Y-67248D01*
X332669Y-67804D01*
X332003Y-68081D01*
X331336Y-68081D01*
X330669Y-67804D01*
X330336Y-67248D01*
X330336Y-64470D01*
X330669Y-63914D01*
X331336Y-63637D01*
X332003Y-63637D01*
X332669Y-63915D01*
X333003Y-64470D01*
G54D12*
X334236Y-67248D02*
X334569Y-67804D01*
X335236Y-68081D01*
X335903Y-68081D01*
X336569Y-67804D01*
X336903Y-67248D01*
X336903Y-66692D01*
X336569Y-66137D01*
X335903Y-65859D01*
X335236Y-65859D01*
X334569Y-65581D01*
X334236Y-65026D01*
X334236Y-64470D01*
X334569Y-63915D01*
X335236Y-63637D01*
X335903Y-63637D01*
X336569Y-63915D01*
X336903Y-64470D01*
G54D12*
X338136Y-68081D02*
X338136Y-63637D01*
G54D11*
X256261Y-75417D02*
X261594Y-75417D01*
G54D11*
X258928Y-73195D02*
X258928Y-77640D01*
G54D11*
X202686Y-75417D02*
X208019Y-75417D01*
G54D11*
X172736Y-83031D02*
X176069Y-74142D01*
X179403Y-83031D01*
G54D11*
X174069Y-79698D02*
X178069Y-79698D01*
G54D11*
X187169Y-75809D02*
X187169Y-81364D01*
X186503Y-82476D01*
X185169Y-83031D01*
X183836Y-83031D01*
X182503Y-82476D01*
X181836Y-81365D01*
X181836Y-75809D01*
X182503Y-74698D01*
X183836Y-74142D01*
X185169Y-74142D01*
X186503Y-74698D01*
X187169Y-75809D01*
G54D11*
X148336Y-83031D02*
X151669Y-74142D01*
X155003Y-83031D01*
G54D11*
X149669Y-79698D02*
X153669Y-79698D01*
G54D11*
X157436Y-77476D02*
X160769Y-74142D01*
X160769Y-83031D01*
G54D11*
X121936Y-83031D02*
X125269Y-74142D01*
X128603Y-83031D01*
G54D11*
X123269Y-79698D02*
X127269Y-79698D01*
G54D11*
X136369Y-83031D02*
X131036Y-83031D01*
X131036Y-82476D01*
X131703Y-81364D01*
X135703Y-78031D01*
X136369Y-76920D01*
X136369Y-75809D01*
X135703Y-74698D01*
X134369Y-74142D01*
X133036Y-74142D01*
X131703Y-74698D01*
X131036Y-75809D01*
G54D11*
X96536Y-83031D02*
X99869Y-74142D01*
X103203Y-83031D01*
G54D11*
X97869Y-79698D02*
X101869Y-79698D01*
G54D11*
X105636Y-75809D02*
X106303Y-74698D01*
X107636Y-74142D01*
X108969Y-74142D01*
X110303Y-74698D01*
X110969Y-75809D01*
X110969Y-76920D01*
X110303Y-78031D01*
X108969Y-78587D01*
X110303Y-79142D01*
X110969Y-80254D01*
X110969Y-81365D01*
X110303Y-82476D01*
X108969Y-83031D01*
X107636Y-83031D01*
X106303Y-82476D01*
X105636Y-81365D01*
G54D11*
X71136Y-83031D02*
X74469Y-74142D01*
X77803Y-83031D01*
G54D11*
X72469Y-79698D02*
X76469Y-79698D01*
G54D11*
X84236Y-83031D02*
X84236Y-74142D01*
X80236Y-79698D01*
X80236Y-80809D01*
X85569Y-80809D01*
G54D11*
X48911Y-83031D02*
X52244Y-74142D01*
X55578Y-83031D01*
G54D11*
X50244Y-79698D02*
X54244Y-79698D01*
G54D11*
X63344Y-74142D02*
X58011Y-74142D01*
X58011Y-78031D01*
X58678Y-78031D01*
X60011Y-77476D01*
X61344Y-77476D01*
X62678Y-78031D01*
X63344Y-79142D01*
X63344Y-81365D01*
X62678Y-82476D01*
X61344Y-83031D01*
X60011Y-83031D01*
X58678Y-82476D01*
X58011Y-81365D01*
G54D13*
X74104Y-100330D02*
X76104Y-101442D01*
X76771Y-102553D01*
X76771Y-104775D01*
G54D13*
X71438Y-104775D02*
X71438Y-95886D01*
X74771Y-95886D01*
X76104Y-96442D01*
X76771Y-97553D01*
X76771Y-98664D01*
X76104Y-99775D01*
X74771Y-100330D01*
X71438Y-100330D01*
G54D13*
X79214Y-95886D02*
X85881Y-104775D01*
G54D13*
X79214Y-104775D02*
X85881Y-95886D01*
G54D13*
X97917Y-104775D02*
X97917Y-95886D01*
G54D13*
X95250Y-95886D02*
X100583Y-95886D01*
G54D13*
X103027Y-95886D02*
X109694Y-104775D01*
G54D13*
X103027Y-104775D02*
X109694Y-95886D01*
G54D14*
X441275Y-133292D02*
X447575Y-126991D01*
X447575Y-114191D01*
X441275Y-107891D01*
X428475Y-107891D01*
X422175Y-114191D01*
X422175Y-126991D01*
X428475Y-133291D01*
X441275Y-133292D01*
G54D14*
X441275Y-82491D02*
X447575Y-76191D01*
X447575Y-63391D01*
X441275Y-57091D01*
X428474Y-57091D01*
X422175Y-63391D01*
X422175Y-76192D01*
X428474Y-82491D01*
X441275Y-82491D01*
G54D14*
X441275Y-107892D02*
X447575Y-101591D01*
X447574Y-88791D01*
X441275Y-82491D01*
X428474Y-82491D01*
X422175Y-88791D01*
X422175Y-101591D01*
X428475Y-107891D01*
X441275Y-107892D01*
G54D14*
X441275Y-57091D02*
X447575Y-50791D01*
X447575Y-37991D01*
X441275Y-31691D01*
X428475Y-31691D01*
X422175Y-37991D01*
X422175Y-50791D01*
X428474Y-57091D01*
X441275Y-57091D01*
G54D14*
X466675Y-133292D02*
X472975Y-126991D01*
X472974Y-114191D01*
X466675Y-107891D01*
X453875Y-107891D01*
X447575Y-114191D01*
X447575Y-126992D01*
X453874Y-133291D01*
X466675Y-133292D01*
G54D14*
X466675Y-82491D02*
X472974Y-76191D01*
X472975Y-63391D01*
X466675Y-57091D01*
X453874Y-57092D01*
X447575Y-63391D01*
X447575Y-76191D01*
X453875Y-82491D01*
X466675Y-82491D01*
G54D14*
X466675Y-107891D02*
X472975Y-101591D01*
X472975Y-88791D01*
X466675Y-82491D01*
X453875Y-82491D01*
X447575Y-88791D01*
X447574Y-101591D01*
X453875Y-107891D01*
X466675Y-107891D01*
G54D14*
X466675Y-57091D02*
X472974Y-50792D01*
X472974Y-37991D01*
X466675Y-31691D01*
X453874Y-31691D01*
X447575Y-37991D01*
X447575Y-50791D01*
X453874Y-57092D01*
X466675Y-57091D01*
G54D14*
X320616Y-25450D02*
X314316Y-19150D01*
X301516Y-19150D01*
X295216Y-25450D01*
X295216Y-38250D01*
X301516Y-44550D01*
X314316Y-44550D01*
X320616Y-38250D01*
X320616Y-25450D01*
G54D14*
X346016Y-25450D02*
X339716Y-19150D01*
X326916Y-19150D01*
X320616Y-25450D01*
X320616Y-38250D01*
X326916Y-44550D01*
X339716Y-44550D01*
X346016Y-38250D01*
X346016Y-25450D01*
G54D14*
X276117Y-19150D02*
X269817Y-25450D01*
X269817Y-38251D01*
X276117Y-44550D01*
X288917Y-44550D01*
X295217Y-38250D01*
X295217Y-25450D01*
X288917Y-19150D01*
X276117Y-19150D01*
G54D14*
X244416Y-25450D02*
X238116Y-19150D01*
X225316Y-19150D01*
X219016Y-25450D01*
X219016Y-38250D01*
X225316Y-44550D01*
X238116Y-44550D01*
X244416Y-38250D01*
X244416Y-25450D01*
G54D14*
X269816Y-25450D02*
X263516Y-19150D01*
X250716Y-19150D01*
X244416Y-25450D01*
X244416Y-38250D01*
X250716Y-44550D01*
X263516Y-44550D01*
X269816Y-38250D01*
X269816Y-25450D01*
G54D14*
X294948Y-84664D02*
X374323Y-84664D01*
G54D10*
X264175Y-149250D02*
X324475Y-149250D01*
G54D10*
X264275Y-193650D02*
X324575Y-193650D01*
G54D10*
G75*
G01X264375Y-149250D02*
G03X264375Y-193650I0J-22200D01*
G01*
G54D10*
G75*
G01X324475Y-193650D02*
G03X324475Y-149250I0J22200D01*
G01*
G54D14*
X92016Y-25450D02*
X85716Y-19150D01*
X72916Y-19150D01*
X66616Y-25450D01*
X66616Y-38250D01*
X72916Y-44550D01*
X85716Y-44550D01*
X92016Y-38250D01*
X92016Y-25450D01*
G54D14*
X117416Y-25450D02*
X111116Y-19150D01*
X98316Y-19150D01*
X92016Y-25450D01*
X92016Y-38250D01*
X98316Y-44550D01*
X111116Y-44550D01*
X117416Y-38250D01*
X117416Y-25450D01*
G54D14*
X47517Y-19150D02*
X41217Y-25450D01*
X41217Y-38251D01*
X47517Y-44550D01*
X60317Y-44550D01*
X66617Y-38250D01*
X66617Y-25450D01*
X60317Y-19150D01*
X47517Y-19150D01*
G54D14*
X142816Y-25450D02*
X136516Y-19150D01*
X123716Y-19150D01*
X117416Y-25450D01*
X117416Y-38250D01*
X123716Y-44550D01*
X136516Y-44550D01*
X142816Y-38250D01*
X142816Y-25450D01*
G54D14*
X168216Y-25450D02*
X161916Y-19150D01*
X149116Y-19150D01*
X142816Y-25450D01*
X142816Y-38250D01*
X149116Y-44550D01*
X161916Y-44550D01*
X168216Y-38250D01*
X168216Y-25450D01*
G54D14*
X98317Y-19150D02*
X92017Y-25450D01*
X92017Y-38251D01*
X98317Y-44550D01*
X111117Y-44550D01*
X117417Y-38250D01*
X117417Y-25450D01*
X111117Y-19150D01*
X98317Y-19150D01*
G54D14*
X219016Y-25450D02*
X212716Y-19150D01*
X199916Y-19150D01*
X193616Y-25450D01*
X193616Y-38250D01*
X199916Y-44550D01*
X212716Y-44550D01*
X219016Y-38250D01*
X219016Y-25450D01*
G54D14*
X244416Y-25450D02*
X238116Y-19150D01*
X225316Y-19150D01*
X219016Y-25450D01*
X219016Y-38250D01*
X225316Y-44550D01*
X238116Y-44550D01*
X244416Y-38250D01*
X244416Y-25450D01*
G54D14*
X225366Y-181025D02*
X219066Y-174725D01*
X206266Y-174725D01*
X199966Y-181025D01*
X199966Y-193825D01*
X206266Y-200125D01*
X219066Y-200125D01*
X225366Y-193825D01*
X225366Y-181025D01*
G54D14*
X92016Y-154831D02*
X85716Y-148531D01*
X72916Y-148531D01*
X66616Y-154831D01*
X66616Y-167631D01*
X72916Y-173931D01*
X85716Y-173931D01*
X92016Y-167631D01*
X92016Y-154831D01*
G54D14*
X117416Y-154831D02*
X111116Y-148531D01*
X98316Y-148531D01*
X92016Y-154831D01*
X92016Y-167631D01*
X98316Y-173931D01*
X111116Y-173931D01*
X117416Y-167631D01*
X117416Y-154831D01*
G54D10*
X34900Y-114250D02*
X15900Y-114250D01*
X15900Y-76250D01*
X34900Y-76250D01*
X34900Y-114250D01*
G54D10*
X25400Y-114350D02*
X25400Y-122250D01*
G54D10*
X25400Y-76250D02*
X25400Y-68350D01*
G54D10*
X152450Y-168250D02*
X152450Y-149250D01*
X190450Y-149250D01*
X190450Y-168250D01*
X152450Y-168250D01*
G54D10*
X152350Y-158750D02*
X144450Y-158750D01*
G54D10*
X190450Y-158750D02*
X198350Y-158750D01*
G54D10*
X374025Y-41275D02*
X381625Y-41275D01*
G54D10*
X377825Y-37475D02*
X377825Y-45075D01*
G54D10*
G75*
G01X405592Y-46438D02*
G03X405592Y-11012I-17713J17713D01*
G01*
G54D14*
X417512Y-25400D02*
X477838Y-25400D01*
X477838Y-19050D01*
X484188Y-25400D01*
X477838Y-31750D01*
X477838Y-25400D01*
G54D15*
X419894Y-22225D02*
X419894Y-14225D01*
X424694Y-22225D01*
X424694Y-14225D01*
G54D15*
X429294Y-18225D02*
X431094Y-19225D01*
X431694Y-20225D01*
X431694Y-22225D01*
G54D15*
X426894Y-22225D02*
X426894Y-14225D01*
X429894Y-14225D01*
X431094Y-14725D01*
X431694Y-15725D01*
X431694Y-16725D01*
X431094Y-17725D01*
X429894Y-18225D01*
X426894Y-18225D01*
G54D15*
X433894Y-22225D02*
X433894Y-14225D01*
X438094Y-14225D01*
G54D15*
X433894Y-18225D02*
X438094Y-18225D01*
G54D15*
X447414Y-22225D02*
X442614Y-22225D01*
X442614Y-21725D01*
X443214Y-20725D01*
X446814Y-17725D01*
X447414Y-16725D01*
X447414Y-15725D01*
X446814Y-14725D01*
X445614Y-14225D01*
X444414Y-14225D01*
X443214Y-14725D01*
X442614Y-15725D01*
G54D15*
X453214Y-22225D02*
X453214Y-14225D01*
X449614Y-19225D01*
X449614Y-20225D01*
X454414Y-20225D01*
G54D15*
X456614Y-14225D02*
X456614Y-22225D01*
X460814Y-22225D01*
G54D15*
X467814Y-15725D02*
X467814Y-20725D01*
X467214Y-21725D01*
X466014Y-22225D01*
X464814Y-22225D01*
X463614Y-21725D01*
X463014Y-20725D01*
X463014Y-15725D01*
X463614Y-14725D01*
X464814Y-14225D01*
X466014Y-14225D01*
X467214Y-14725D01*
X467814Y-15725D01*
G54D15*
X470014Y-17225D02*
X473014Y-14225D01*
X473014Y-22225D01*
G54D16*
X228625Y-203200D02*
X228625Y-196089D01*
X225425Y-200533D01*
X225425Y-201422D01*
X229692Y-201422D01*
G54D16*
X232715Y-203200D02*
X232715Y-204089D01*
X232181Y-204978D01*
X231648Y-204978D01*
G54D16*
X238938Y-203200D02*
X234671Y-203200D01*
X234671Y-202756D01*
X235204Y-201867D01*
X238404Y-199200D01*
X238938Y-198311D01*
X238938Y-197422D01*
X238404Y-196533D01*
X237338Y-196089D01*
X236271Y-196089D01*
X235204Y-196533D01*
X234671Y-197422D01*
G54D16*
X240894Y-196089D02*
X243561Y-203200D01*
X246227Y-196089D01*
G54D16*
X250246Y-200089D02*
X254513Y-200089D01*
G54D16*
X258532Y-197422D02*
X259065Y-196533D01*
X260132Y-196089D01*
X261199Y-196089D01*
X262265Y-196533D01*
X262799Y-197422D01*
X262799Y-198311D01*
X262265Y-199200D01*
X261199Y-199644D01*
X262265Y-200089D01*
X262799Y-200978D01*
X262799Y-201867D01*
X262265Y-202756D01*
X261199Y-203200D01*
X260132Y-203200D01*
X259065Y-202756D01*
X258532Y-201867D01*
G54D16*
X265822Y-203200D02*
X265822Y-204089D01*
X265288Y-204978D01*
X264755Y-204978D01*
G54D16*
X267778Y-197422D02*
X268311Y-196533D01*
X269378Y-196089D01*
X270445Y-196089D01*
X271511Y-196533D01*
X272045Y-197422D01*
X272045Y-198311D01*
X271511Y-199200D01*
X270445Y-199644D01*
X271511Y-200089D01*
X272045Y-200978D01*
X272045Y-201867D01*
X271511Y-202756D01*
X270445Y-203200D01*
X269378Y-203200D01*
X268311Y-202756D01*
X267778Y-201867D01*
G54D16*
X274001Y-196089D02*
X276668Y-203200D01*
X279334Y-196089D01*
G54D14*
X66616Y-154831D02*
X60316Y-148531D01*
X47516Y-148531D01*
X41216Y-154831D01*
X41216Y-167631D01*
X47516Y-173931D01*
X60316Y-173931D01*
X66616Y-167631D01*
X66616Y-154831D01*
G54D14*
X92016Y-154831D02*
X85716Y-148531D01*
X72916Y-148531D01*
X66616Y-154831D01*
X66616Y-167631D01*
X72916Y-173931D01*
X85716Y-173931D01*
X92016Y-167631D01*
X92016Y-154831D01*
G54D14*
X387283Y-174775D02*
X380983Y-168475D01*
X368183Y-168474D01*
X361883Y-174775D01*
X361883Y-187575D01*
X368183Y-193875D01*
X380983Y-193875D01*
X387283Y-187575D01*
X387283Y-174775D01*
G54D14*
X412683Y-174775D02*
X406383Y-168474D01*
X393583Y-168475D01*
X387283Y-174775D01*
X387283Y-187575D01*
X393583Y-193875D01*
X406383Y-193875D01*
X412683Y-187575D01*
X412683Y-174775D01*
G54D14*
X387292Y-149275D02*
X380991Y-142975D01*
X368191Y-142975D01*
X361891Y-149275D01*
X361891Y-162075D01*
X368192Y-168375D01*
X380991Y-168375D01*
X387291Y-162075D01*
X387292Y-149275D01*
G54D14*
X412692Y-149275D02*
X406392Y-142975D01*
X393591Y-142975D01*
X387292Y-149275D01*
X387291Y-162075D01*
X393591Y-168375D01*
X406392Y-168375D01*
X412692Y-162075D01*
X412692Y-149275D01*
G54D14*
X34866Y-181025D02*
X28566Y-174725D01*
X15766Y-174725D01*
X9466Y-181025D01*
X9466Y-193825D01*
X15766Y-200125D01*
X28566Y-200125D01*
X34866Y-193825D01*
X34866Y-181025D01*
G54D14*
X172302Y-191026D02*
X153451Y-191026D01*
X111650Y-188912D01*
G54D14*
X61595Y-190902D02*
X82850Y-190476D01*
X124651Y-192590D01*
G54D10*
G75*
G01X370166Y-11012D02*
G03X370166Y-46438I17713J-17713D01*
G01*
G54D16*
X279400Y-157481D02*
X282067Y-154814D01*
X282067Y-161925D01*
G54D16*
X288290Y-156147D02*
X287756Y-155258D01*
X286690Y-154814D01*
X285623Y-154814D01*
X284556Y-155258D01*
X284023Y-156147D01*
X284023Y-158369D01*
X284023Y-158814D01*
X285623Y-157925D01*
X286690Y-157925D01*
X287756Y-158369D01*
X288290Y-159258D01*
X288290Y-160592D01*
X287756Y-161481D01*
X286690Y-161925D01*
X285623Y-161925D01*
X284556Y-161481D01*
X284023Y-160592D01*
X284023Y-158369D01*
G54D16*
X290246Y-161925D02*
X290246Y-154814D01*
X292913Y-159258D01*
X295579Y-154814D01*
X295579Y-161925D01*
G54D16*
X297535Y-161925D02*
X297535Y-154814D01*
G54D16*
X301802Y-161925D02*
X301802Y-154814D01*
G54D16*
X297535Y-158369D02*
X301802Y-158369D01*
G54D16*
X303758Y-157925D02*
X306958Y-157925D01*
X303758Y-161925D01*
X306958Y-161925D01*
G54D16*
X161925Y-157481D02*
X164592Y-154814D01*
X164592Y-161925D01*
G54D16*
X166548Y-161925D02*
X166548Y-154814D01*
X169215Y-159258D01*
X171881Y-154814D01*
X171881Y-161925D01*
G54D16*
X178104Y-156147D02*
X178104Y-160592D01*
X177570Y-161481D01*
X176504Y-161925D01*
X175437Y-161925D01*
X174370Y-161481D01*
X173837Y-160592D01*
X173837Y-156147D01*
X174370Y-155258D01*
X175437Y-154814D01*
X176504Y-154814D01*
X177570Y-155258D01*
X178104Y-156147D01*
G54D16*
X26730Y-83256D02*
X27619Y-83789D01*
X28063Y-84856D01*
X28063Y-85923D01*
X27619Y-86989D01*
X26730Y-87523D01*
X25841Y-87523D01*
X24952Y-86989D01*
X24507Y-85923D01*
X24063Y-86989D01*
X23174Y-87523D01*
X22285Y-87523D01*
X21396Y-86989D01*
X20952Y-85923D01*
X20952Y-84856D01*
X21396Y-83789D01*
X22285Y-83256D01*
G54D16*
X26730Y-89479D02*
X27619Y-90012D01*
X28063Y-91079D01*
X28063Y-92146D01*
X27619Y-93212D01*
X26730Y-93746D01*
X25841Y-93746D01*
X24952Y-93212D01*
X24507Y-92146D01*
X24063Y-93212D01*
X23174Y-93746D01*
X22285Y-93746D01*
X21396Y-93212D01*
X20952Y-92146D01*
X20952Y-91079D01*
X21396Y-90012D01*
X22285Y-89479D01*
G54D16*
X26730Y-99969D02*
X22285Y-99969D01*
X21396Y-99435D01*
X20952Y-98369D01*
X20952Y-97302D01*
X21396Y-96235D01*
X22285Y-95702D01*
X26730Y-95702D01*
X27619Y-96235D01*
X28063Y-97302D01*
X28063Y-98369D01*
X27619Y-99435D01*
X26730Y-99969D01*
G54D16*
X20952Y-101925D02*
X28063Y-101925D01*
G54D16*
X23174Y-101925D02*
X28063Y-106192D01*
G54D16*
X24507Y-103525D02*
X20952Y-106192D01*
G54D16*
X377825Y-14606D02*
X380492Y-11939D01*
X380492Y-19050D01*
G54D16*
X386715Y-13272D02*
X386715Y-17717D01*
X386181Y-18606D01*
X385115Y-19050D01*
X384048Y-19050D01*
X382981Y-18606D01*
X382448Y-17717D01*
X382448Y-13272D01*
X382981Y-12383D01*
X384048Y-11939D01*
X385115Y-11939D01*
X386181Y-12383D01*
X386715Y-13272D01*
G54D16*
X391871Y-15050D02*
X391871Y-19050D01*
G54D16*
X391871Y-18161D02*
X391338Y-18872D01*
X390271Y-19050D01*
X389204Y-18872D01*
X388671Y-18161D01*
X388671Y-15050D01*
G54D16*
X393827Y-19050D02*
X393827Y-11939D01*
X397560Y-11939D01*
G54D16*
X393827Y-15495D02*
X397560Y-15495D01*
G54D16*
X17215Y-167101D02*
X19348Y-167101D01*
X19348Y-169323D01*
X18815Y-170212D01*
X17748Y-170656D01*
X16681Y-170656D01*
X15615Y-170212D01*
X15081Y-169323D01*
X15081Y-164878D01*
X15615Y-163990D01*
X16681Y-163545D01*
X17748Y-163545D01*
X18815Y-163990D01*
X19348Y-164878D01*
G54D16*
X21304Y-170656D02*
X21304Y-163545D01*
X25571Y-170656D01*
X25571Y-163545D01*
G54D16*
X27527Y-170656D02*
X27527Y-163545D01*
X30194Y-163545D01*
X31261Y-163990D01*
X31794Y-164878D01*
X31794Y-169323D01*
X31261Y-170212D01*
X30194Y-170656D01*
X27527Y-170656D01*
G54D16*
X274638Y-13748D02*
X275171Y-14637D01*
X276238Y-15081D01*
X277304Y-15081D01*
X278371Y-14637D01*
X278904Y-13748D01*
X278904Y-12859D01*
X278371Y-11970D01*
X277304Y-11526D01*
X276238Y-11526D01*
X275171Y-11081D01*
X274638Y-10192D01*
X274638Y-9303D01*
X275171Y-8415D01*
X276238Y-7970D01*
X277304Y-7970D01*
X278371Y-8415D01*
X278904Y-9303D01*
G54D16*
X285127Y-13748D02*
X284594Y-14637D01*
X283527Y-15081D01*
X282460Y-15081D01*
X281394Y-14637D01*
X280860Y-13748D01*
X280860Y-9303D01*
X281394Y-8415D01*
X282460Y-7970D01*
X283527Y-7970D01*
X284594Y-8415D01*
X285127Y-9303D01*
G54D16*
X287084Y-15081D02*
X287084Y-7970D01*
G54D16*
X287084Y-12859D02*
X291350Y-7970D01*
G54D16*
X288684Y-11526D02*
X291350Y-15081D01*
G54D16*
X300038Y-15081D02*
X300038Y-7970D01*
X302704Y-12415D01*
X305371Y-7970D01*
X305371Y-15081D01*
G54D16*
X307326Y-15081D02*
X307326Y-7970D01*
G54D16*
X309282Y-13748D02*
X309816Y-14637D01*
X310882Y-15081D01*
X311949Y-15081D01*
X313016Y-14637D01*
X313549Y-13748D01*
X313549Y-12859D01*
X313016Y-11970D01*
X311949Y-11526D01*
X310882Y-11526D01*
X309816Y-11081D01*
X309282Y-10192D01*
X309282Y-9303D01*
X309816Y-8415D01*
X310882Y-7970D01*
X311949Y-7970D01*
X313016Y-8415D01*
X313549Y-9303D01*
G54D16*
X319772Y-9303D02*
X319772Y-13748D01*
X319239Y-14637D01*
X318172Y-15081D01*
X317106Y-15081D01*
X316039Y-14637D01*
X315506Y-13748D01*
X315506Y-9303D01*
X316039Y-8415D01*
X317106Y-7970D01*
X318172Y-7970D01*
X319239Y-8415D01*
X319772Y-9303D01*
G54D16*
X325438Y-15081D02*
X325438Y-7970D01*
X328104Y-12415D01*
X330771Y-7970D01*
X330771Y-15081D01*
G54D16*
X336993Y-9303D02*
X336993Y-13748D01*
X336460Y-14637D01*
X335393Y-15081D01*
X334326Y-15081D01*
X333260Y-14637D01*
X332726Y-13748D01*
X332726Y-9303D01*
X333260Y-8415D01*
X334326Y-7970D01*
X335393Y-7970D01*
X336460Y-8415D01*
X336993Y-9303D01*
G54D16*
X338950Y-13748D02*
X339483Y-14637D01*
X340550Y-15081D01*
X341616Y-15081D01*
X342683Y-14637D01*
X343216Y-13748D01*
X343216Y-12859D01*
X342683Y-11970D01*
X341616Y-11526D01*
X340550Y-11526D01*
X339483Y-11081D01*
X338950Y-10192D01*
X338950Y-9303D01*
X339483Y-8415D01*
X340550Y-7970D01*
X341616Y-7970D01*
X342683Y-8415D01*
X343216Y-9303D01*
G54D16*
X345172Y-15081D02*
X345172Y-7970D01*
G54D16*
X48419Y-15081D02*
X51085Y-7970D01*
X53752Y-15081D01*
G54D16*
X49485Y-12415D02*
X52685Y-12415D01*
G54D16*
X59974Y-7970D02*
X55708Y-7970D01*
X55708Y-11081D01*
X56241Y-11081D01*
X57308Y-10637D01*
X58374Y-10637D01*
X59441Y-11081D01*
X59974Y-11970D01*
X59974Y-13748D01*
X59441Y-14637D01*
X58374Y-15081D01*
X57308Y-15081D01*
X56241Y-14637D01*
X55708Y-13748D01*
G54D16*
X73819Y-15079D02*
X76485Y-7968D01*
X79152Y-15079D01*
G54D16*
X74885Y-12412D02*
X78085Y-12412D01*
G54D16*
X84308Y-15079D02*
X84308Y-7968D01*
X81108Y-12412D01*
X81108Y-13301D01*
X85374Y-13301D01*
G54D16*
X100012Y-15080D02*
X102679Y-7969D01*
X105346Y-15080D01*
G54D16*
X101079Y-12414D02*
X104279Y-12414D01*
G54D16*
X107302Y-9303D02*
X107835Y-8414D01*
X108902Y-7969D01*
X109968Y-7969D01*
X111035Y-8414D01*
X111568Y-9303D01*
X111568Y-10192D01*
X111035Y-11080D01*
X109968Y-11525D01*
X111035Y-11969D01*
X111568Y-12858D01*
X111568Y-13747D01*
X111035Y-14636D01*
X109968Y-15080D01*
X108902Y-15080D01*
X107835Y-14636D01*
X107302Y-13747D01*
G54D16*
X124200Y-15081D02*
X126867Y-7970D01*
X129534Y-15081D01*
G54D16*
X125267Y-12415D02*
X128467Y-12415D01*
G54D16*
X135756Y-15081D02*
X131490Y-15081D01*
X131490Y-14637D01*
X132023Y-13748D01*
X135223Y-11081D01*
X135756Y-10192D01*
X135756Y-9303D01*
X135223Y-8415D01*
X134156Y-7970D01*
X133090Y-7970D01*
X132023Y-8415D01*
X131490Y-9303D01*
G54D16*
X149600Y-15075D02*
X152267Y-7964D01*
X154934Y-15075D01*
G54D16*
X150667Y-12409D02*
X153867Y-12409D01*
G54D16*
X156890Y-10631D02*
X159556Y-7964D01*
X159556Y-15075D01*
G54D16*
X199777Y-11525D02*
X201910Y-11525D01*
X201910Y-13747D01*
X201377Y-14636D01*
X200310Y-15080D01*
X199244Y-15080D01*
X198177Y-14636D01*
X197644Y-13747D01*
X197644Y-9303D01*
X198177Y-8414D01*
X199244Y-7969D01*
X200310Y-7969D01*
X201377Y-8414D01*
X201910Y-9303D01*
G54D16*
X203867Y-15080D02*
X203867Y-7969D01*
X208133Y-15080D01*
X208133Y-7969D01*
G54D16*
X210090Y-15080D02*
X210090Y-7969D01*
X212756Y-7969D01*
X213823Y-8414D01*
X214356Y-9303D01*
X214356Y-13747D01*
X213823Y-14636D01*
X212756Y-15080D01*
X210090Y-15080D01*
G54D16*
X225971Y-11525D02*
X228104Y-11525D01*
X228104Y-13747D01*
X227571Y-14636D01*
X226504Y-15080D01*
X225438Y-15080D01*
X224371Y-14636D01*
X223838Y-13747D01*
X223838Y-9303D01*
X224371Y-8414D01*
X225438Y-7969D01*
X226504Y-7969D01*
X227571Y-8414D01*
X228104Y-9303D01*
G54D16*
X230060Y-15080D02*
X230060Y-7969D01*
X234327Y-15080D01*
X234327Y-7969D01*
G54D16*
X236284Y-15080D02*
X236284Y-7969D01*
X238950Y-7969D01*
X240017Y-8414D01*
X240550Y-9303D01*
X240550Y-13747D01*
X240017Y-14636D01*
X238950Y-15080D01*
X236284Y-15080D01*
G54D16*
X356769Y-196877D02*
X361036Y-196877D01*
X360503Y-197765D01*
X359436Y-199099D01*
X358369Y-200877D01*
X357836Y-202210D01*
X357836Y-203988D01*
G54D16*
X362992Y-203988D02*
X367259Y-196877D01*
G54D16*
X371882Y-200432D02*
X370815Y-200432D01*
X369749Y-199988D01*
X369215Y-199099D01*
X369215Y-198210D01*
X369749Y-197321D01*
X370815Y-196877D01*
X371882Y-196877D01*
X372949Y-197321D01*
X373482Y-198210D01*
X373482Y-199099D01*
X372949Y-199988D01*
X371882Y-200432D01*
X372949Y-200877D01*
X373482Y-201765D01*
X373482Y-202654D01*
X372949Y-203543D01*
X371882Y-203988D01*
X370815Y-203988D01*
X369749Y-203543D01*
X369215Y-202654D01*
X369215Y-201765D01*
X369749Y-200877D01*
X370815Y-200432D01*
G54D16*
X375438Y-203988D02*
X379705Y-196877D01*
G54D16*
X385928Y-203988D02*
X381661Y-203988D01*
X381661Y-203543D01*
X382195Y-202654D01*
X385395Y-199988D01*
X385928Y-199099D01*
X385928Y-198210D01*
X385395Y-197321D01*
X384328Y-196877D01*
X383261Y-196877D01*
X382195Y-197321D01*
X381661Y-198210D01*
G54D16*
X387884Y-199988D02*
X392151Y-203988D01*
G54D16*
X387884Y-203988D02*
X392151Y-199988D01*
G54D16*
X398304Y-200432D02*
X400437Y-200432D01*
X400437Y-202654D01*
X399904Y-203543D01*
X398837Y-203988D01*
X397770Y-203988D01*
X396704Y-203543D01*
X396170Y-202654D01*
X396170Y-198210D01*
X396704Y-197321D01*
X397770Y-196877D01*
X398837Y-196877D01*
X399904Y-197321D01*
X400437Y-198210D01*
G54D16*
X402393Y-203988D02*
X402393Y-196877D01*
X406660Y-203988D01*
X406660Y-196877D01*
G54D16*
X408616Y-203988D02*
X408616Y-196877D01*
X411283Y-196877D01*
X412350Y-197321D01*
X412883Y-198210D01*
X412883Y-202654D01*
X412350Y-203543D01*
X411283Y-203988D01*
X408616Y-203988D01*
G54D16*
X77915Y-182176D02*
X79515Y-183065D01*
X80048Y-183954D01*
X80048Y-185731D01*
G54D16*
X75782Y-185731D02*
X75782Y-178620D01*
X78448Y-178620D01*
X79515Y-179065D01*
X80048Y-179954D01*
X80048Y-180843D01*
X79515Y-181731D01*
X78448Y-182176D01*
X75782Y-182176D01*
G54D16*
X82005Y-178620D02*
X87338Y-185731D01*
G54D16*
X82005Y-185731D02*
X87338Y-178620D01*
G54D16*
X100140Y-185731D02*
X100140Y-178620D01*
G54D16*
X98007Y-178620D02*
X102273Y-178620D01*
G54D16*
X104230Y-178620D02*
X109563Y-185731D01*
G54D16*
X104230Y-185731D02*
X109563Y-178620D01*
G54D16*
X170238Y-197416D02*
X170771Y-196527D01*
X171838Y-196083D01*
X172905Y-196083D01*
X173971Y-196527D01*
X174505Y-197416D01*
X174505Y-198305D01*
X173971Y-199194D01*
X172905Y-199638D01*
X173971Y-200083D01*
X174505Y-200972D01*
X174505Y-201861D01*
X173971Y-202750D01*
X172905Y-203194D01*
X171838Y-203194D01*
X170771Y-202750D01*
X170238Y-201861D01*
G54D14*
X193616Y-25450D02*
X187316Y-19150D01*
X174516Y-19150D01*
X168216Y-25450D01*
X168216Y-38250D01*
X174516Y-44550D01*
X187316Y-44550D01*
X193616Y-38250D01*
X193616Y-25450D01*
G54D14*
X219016Y-25450D02*
X212716Y-19150D01*
X199916Y-19150D01*
X193616Y-25450D01*
X193616Y-38250D01*
X199916Y-44550D01*
X212716Y-44550D01*
X219016Y-38250D01*
X219016Y-25450D01*
G54D16*
X175171Y-11525D02*
X177304Y-11525D01*
X177304Y-13747D01*
X176771Y-14636D01*
X175704Y-15080D01*
X174638Y-15080D01*
X173571Y-14636D01*
X173038Y-13747D01*
X173038Y-9303D01*
X173571Y-8414D01*
X174638Y-7969D01*
X175704Y-7969D01*
X176771Y-8414D01*
X177304Y-9303D01*
G54D16*
X179260Y-15080D02*
X179260Y-7969D01*
X183527Y-15080D01*
X183527Y-7969D01*
G54D16*
X185484Y-15080D02*
X185484Y-7969D01*
X188150Y-7969D01*
X189217Y-8414D01*
X189750Y-9303D01*
X189750Y-13747D01*
X189217Y-14636D01*
X188150Y-15080D01*
X185484Y-15080D01*
G54D13*
X454062Y-184150D02*
X454062Y-175261D01*
X457395Y-180816D01*
X460728Y-175261D01*
X460728Y-184150D01*
G54D13*
X468506Y-176928D02*
X468506Y-182483D01*
X467839Y-183594D01*
X466506Y-184150D01*
X465172Y-184150D01*
X463839Y-183594D01*
X463172Y-182483D01*
X463172Y-176928D01*
X463839Y-175816D01*
X465172Y-175261D01*
X466506Y-175261D01*
X467839Y-175816D01*
X468506Y-176928D01*
G54D13*
X470950Y-182483D02*
X471616Y-183594D01*
X472950Y-184150D01*
X474283Y-184150D01*
X475616Y-183594D01*
X476283Y-182483D01*
X476283Y-181372D01*
X475616Y-180261D01*
X474283Y-179705D01*
X472950Y-179705D01*
X471616Y-179150D01*
X470950Y-178039D01*
X470950Y-176928D01*
X471616Y-175816D01*
X472950Y-175261D01*
X474283Y-175261D01*
X475616Y-175816D01*
X476283Y-176928D01*
G54D13*
X478726Y-184150D02*
X478726Y-175261D01*
G54D13*
X423069Y-199231D02*
X423069Y-190342D01*
X426402Y-195898D01*
X429735Y-190342D01*
X429735Y-199231D01*
G54D13*
X432180Y-199231D02*
X432180Y-190342D01*
G54D13*
X434624Y-197565D02*
X435290Y-198676D01*
X436624Y-199231D01*
X437957Y-199231D01*
X439290Y-198676D01*
X439957Y-197565D01*
X439957Y-196453D01*
X439290Y-195342D01*
X437957Y-194787D01*
X436624Y-194787D01*
X435290Y-194231D01*
X434624Y-193120D01*
X434624Y-192009D01*
X435290Y-190898D01*
X436624Y-190342D01*
X437957Y-190342D01*
X439290Y-190898D01*
X439957Y-192009D01*
G54D13*
X447734Y-192009D02*
X447734Y-197565D01*
X447067Y-198676D01*
X445734Y-199231D01*
X444401Y-199231D01*
X443067Y-198676D01*
X442401Y-197565D01*
X442401Y-192009D01*
X443067Y-190898D01*
X444401Y-190342D01*
X445734Y-190342D01*
X447067Y-190898D01*
X447734Y-192009D01*
G54D13*
X424974Y-182483D02*
X425640Y-183594D01*
X426974Y-184150D01*
X428307Y-184150D01*
X429640Y-183594D01*
X430307Y-182483D01*
X430307Y-181372D01*
X429640Y-180261D01*
X428307Y-179706D01*
X426974Y-179706D01*
X425640Y-179150D01*
X424974Y-178039D01*
X424974Y-176928D01*
X425640Y-175817D01*
X426974Y-175261D01*
X428307Y-175261D01*
X429640Y-175817D01*
X430307Y-176928D01*
G54D13*
X438084Y-182483D02*
X437417Y-183594D01*
X436084Y-184150D01*
X434751Y-184150D01*
X433417Y-183594D01*
X432751Y-182483D01*
X432751Y-176928D01*
X433417Y-175817D01*
X434751Y-175261D01*
X436084Y-175261D01*
X437417Y-175817D01*
X438084Y-176928D01*
G54D13*
X440528Y-184150D02*
X440528Y-175261D01*
G54D13*
X440528Y-181372D02*
X445861Y-175261D01*
G54D13*
X442528Y-179706D02*
X445861Y-184150D01*
G54D13*
X459838Y-199231D02*
X459838Y-190342D01*
X463171Y-190342D01*
X464504Y-190898D01*
X465171Y-192009D01*
X465171Y-197565D01*
X464504Y-198676D01*
X463171Y-199231D01*
X459838Y-199231D01*
G54D13*
X472948Y-199231D02*
X467614Y-199231D01*
X467614Y-198676D01*
X468281Y-197565D01*
X472281Y-194231D01*
X472948Y-193120D01*
X472948Y-192009D01*
X472281Y-190898D01*
X470948Y-190342D01*
X469614Y-190342D01*
X468281Y-190898D01*
X467614Y-192009D01*
G54D13*
X428846Y-169069D02*
X428846Y-160180D01*
X432179Y-160180D01*
X433512Y-160735D01*
X434179Y-161847D01*
X434179Y-167402D01*
X433512Y-168513D01*
X432179Y-169069D01*
X428846Y-169069D01*
G54D13*
X436623Y-167402D02*
X437289Y-168513D01*
X438623Y-169069D01*
X439956Y-169069D01*
X441289Y-168513D01*
X441956Y-167402D01*
X441956Y-164624D01*
X441956Y-164069D01*
X439956Y-165180D01*
X438623Y-165180D01*
X437289Y-164624D01*
X436623Y-163513D01*
X436623Y-161847D01*
X437289Y-160735D01*
X438623Y-160180D01*
X439956Y-160180D01*
X441289Y-160735D01*
X441956Y-161847D01*
X441956Y-164624D01*
G54D13*
X456950Y-169069D02*
X456950Y-160180D01*
X460283Y-160180D01*
X461616Y-160735D01*
X462283Y-161847D01*
X462283Y-167402D01*
X461616Y-168513D01*
X460283Y-169069D01*
X456950Y-169069D01*
G54D13*
X464726Y-163513D02*
X468060Y-160180D01*
X468060Y-169069D01*
G54D13*
X475837Y-161847D02*
X475837Y-167402D01*
X475170Y-168513D01*
X473837Y-169069D01*
X472504Y-169069D01*
X471170Y-168513D01*
X470504Y-167402D01*
X470504Y-161847D01*
X471170Y-160735D01*
X472504Y-160180D01*
X473837Y-160180D01*
X475170Y-160735D01*
X475837Y-161847D01*
G54D13*
X455300Y-145098D02*
X458633Y-153987D01*
X461967Y-145098D01*
G54D13*
X469744Y-152320D02*
X469078Y-153431D01*
X467744Y-153987D01*
X466411Y-153987D01*
X465078Y-153431D01*
X464411Y-152320D01*
X464411Y-146765D01*
X465078Y-145654D01*
X466411Y-145098D01*
X467744Y-145098D01*
X469078Y-145654D01*
X469744Y-146765D01*
G54D13*
X477521Y-152320D02*
X476855Y-153431D01*
X475521Y-153987D01*
X474188Y-153987D01*
X472855Y-153431D01*
X472188Y-152320D01*
X472188Y-146765D01*
X472855Y-145654D01*
X474188Y-145098D01*
X475521Y-145098D01*
X476855Y-145654D01*
X477521Y-146765D01*
G54D13*
X427624Y-149543D02*
X430291Y-149543D01*
X430291Y-152321D01*
X429624Y-153432D01*
X428291Y-153988D01*
X426958Y-153988D01*
X425624Y-153432D01*
X424958Y-152321D01*
X424958Y-146765D01*
X425624Y-145654D01*
X426958Y-145099D01*
X428291Y-145099D01*
X429624Y-145654D01*
X430291Y-146765D01*
G54D13*
X432735Y-153988D02*
X432735Y-145099D01*
X438068Y-153988D01*
X438068Y-145099D01*
G54D13*
X440512Y-153988D02*
X440512Y-145099D01*
X443845Y-145099D01*
X445178Y-145654D01*
X445845Y-146765D01*
X445845Y-152321D01*
X445178Y-153432D01*
X443845Y-153988D01*
X440512Y-153988D01*
G54D14*
X419894Y-203200D02*
X481806Y-203200D01*
X481806Y-142081D01*
X419894Y-142081D01*
X419894Y-203200D01*
G54D14*
X419894Y-157162D02*
X481806Y-157162D01*
G54D14*
X419894Y-172244D02*
X481806Y-172244D01*
G54D14*
X419894Y-187325D02*
X481806Y-187325D01*
G54D14*
X450850Y-142081D02*
X450850Y-203200D01*
M02*
