; Drill file
; Format: 2.4 (00.0000)
M48
INCH
T01C0.0236
T02C0.0283
T03C0.032
T04C0.0323
T05C0.0402
%
G05
G90
T01
X001000Y-005250
X001000Y-002250
X005250Y-006250
X008250Y-006250
X010620Y-006750
X012530Y-006750
T02
X002120Y-005250
X003120Y-005250
X004120Y-005250
X005120Y-005250
X006130Y-005250
X007130Y-005250
X008120Y-005250
X009120Y-005250
X010120Y-005250
X011130Y-005250
X012120Y-005250
X013120Y-005250
X014130Y-005250
X015120Y-005250
X015120Y-002250
X014130Y-002250
X013120Y-002250
X012120Y-002250
X011130Y-002250
X010120Y-002250
X009120Y-002250
X008120Y-002250
X007130Y-002250
X006130Y-002250
X005120Y-002250
X004120Y-002250
X003120Y-002250
X002120Y-002250
X014880Y-001130
X015670Y-001130
T03
X001860Y-007520
X011110Y-003330
T04
X007360Y-007520
X015240Y-003330
T05
X000870Y-007380
X002120Y-006340
X003120Y-006340
X004120Y-006340
X008380Y-007380
X008120Y-001250
X009120Y-001250
X010120Y-001250
X011120Y-001250
X012120Y-001250
X013120Y-001250
X017120Y-001750
X017120Y-002750
X017120Y-003750
X018120Y-003750
X018120Y-002750
X018120Y-001750
X018120Y-004750
X017120Y-004750
X015750Y-006130
X014750Y-006130
X014750Y-007130
X015750Y-007130
X007130Y-001250
X006130Y-001250
X005120Y-001250
X004120Y-001250
X003120Y-001250
X002120Y-001250
M30
